<mxfile host="app.diagrams.net" agent="Mozilla/5.0 (Windows NT 10.0; Win64; x64) AppleWebKit/537.36 (KHTML, like Gecko) Chrome/130.0.0.0 Safari/537.36 Edg/130.0.0.0" version="24.8.0">
  <diagram name="Page-1" id="CEwTjMHK4fpa5xWqWnd2">
    <mxGraphModel dx="5903" dy="5563" grid="1" gridSize="10" guides="1" tooltips="1" connect="1" arrows="1" fold="1" page="1" pageScale="1" pageWidth="1800" pageHeight="2400" math="0" shadow="0">
      <root>
        <mxCell id="0" />
        <mxCell id="1" parent="0" />
        <mxCell id="iCYjKAUPEGqBXVnx9e7x-76" value="" style="html=1;overflow=block;blockSpacing=1;whiteSpace=wrap;fontSize=13;align=center;spacing=3.8;strokeColor=#000000;rounded=1;absoluteArcSize=1;arcSize=12;fillColor=none;strokeWidth=NaN;lucidId=962aWOZB_6QL;movable=1;resizable=1;rotatable=1;deletable=1;editable=1;locked=0;connectable=1;" parent="1" vertex="1">
          <mxGeometry x="721.42" y="-1850" width="545.22" height="350" as="geometry" />
        </mxCell>
        <mxCell id="iCYjKAUPEGqBXVnx9e7x-1" value="&lt;font style=&quot;font-size: 24px;&quot;&gt;Input Video URL&lt;/font&gt;" style="html=1;overflow=block;blockSpacing=1;whiteSpace=wrap;fontSize=16.7;fontStyle=1;align=center;spacing=3.8;strokeColor=#82b366;rounded=1;absoluteArcSize=1;arcSize=12;fillColor=#d5e8d4;strokeWidth=NaN;lucidId=2M2aBygYLxwU;" parent="1" vertex="1">
          <mxGeometry x="849.1899999999999" y="-2230" width="272.39" height="89" as="geometry" />
        </mxCell>
        <mxCell id="iCYjKAUPEGqBXVnx9e7x-2" value="" style="html=1;overflow=block;blockSpacing=1;whiteSpace=wrap;fontSize=13;align=center;spacing=3.8;strokeColor=#000000;rounded=1;absoluteArcSize=1;arcSize=12;fillColor=none;strokeWidth=NaN;lucidId=WN2alzcBAzDW;" parent="1" vertex="1">
          <mxGeometry x="675.39" y="-2097" width="620" height="149" as="geometry" />
        </mxCell>
        <mxCell id="iCYjKAUPEGqBXVnx9e7x-3" value="" style="html=1;jettySize=18;whiteSpace=wrap;fontSize=13;strokeColor=#333333;strokeOpacity=100;strokeWidth=0.8;rounded=1;arcSize=24;edgeStyle=orthogonalEdgeStyle;startArrow=none;endArrow=block;endFill=1;exitX=0.5;exitY=1.006;exitPerimeter=0;entryX=0.5;entryY=-0.003;entryPerimeter=0;lucidId=9N2aXuCiGTHL;" parent="1" source="iCYjKAUPEGqBXVnx9e7x-1" target="iCYjKAUPEGqBXVnx9e7x-2" edge="1">
          <mxGeometry width="100" height="100" relative="1" as="geometry">
            <Array as="points" />
          </mxGeometry>
        </mxCell>
        <mxCell id="iCYjKAUPEGqBXVnx9e7x-4" value="&lt;font color=&quot;#242424&quot;&gt;Video Processing&lt;/font&gt;" style="html=1;overflow=block;blockSpacing=1;whiteSpace=wrap;fontSize=16.7;fontStyle=1;align=center;spacing=3.8;strokeColor=#242424;rounded=1;absoluteArcSize=1;arcSize=12;fillColor=none;strokeWidth=1;lucidId=pO2aqZgcHyE-;" parent="1" vertex="1">
          <mxGeometry x="696.39" y="-2052" width="240" height="60" as="geometry" />
        </mxCell>
        <mxCell id="iCYjKAUPEGqBXVnx9e7x-5" value="Audio Processing" style="html=1;overflow=block;blockSpacing=1;whiteSpace=wrap;fontSize=16.7;fontStyle=1;align=center;spacing=3.8;strokeColor=#000000;rounded=1;absoluteArcSize=1;arcSize=12;fillColor=none;strokeWidth=NaN;lucidId=tO2a3v7LNHiK;" parent="1" vertex="1">
          <mxGeometry x="1018.3899999999999" y="-2052" width="240" height="60" as="geometry" />
        </mxCell>
        <mxCell id="iCYjKAUPEGqBXVnx9e7x-39" value="" style="html=1;jettySize=18;whiteSpace=wrap;fontSize=13;strokeColor=#333333;strokeOpacity=100;strokeWidth=0.8;rounded=1;arcSize=24;edgeStyle=orthogonalEdgeStyle;startArrow=none;endArrow=block;endFill=1;exitX=0.5;exitY=1.006;exitPerimeter=0;lucidId=L32a1ASF_Svc;" parent="1" source="iCYjKAUPEGqBXVnx9e7x-5" edge="1">
          <mxGeometry width="100" height="100" relative="1" as="geometry">
            <Array as="points" />
            <mxPoint x="988.3899999999999" y="-1850" as="targetPoint" />
          </mxGeometry>
        </mxCell>
        <mxCell id="iCYjKAUPEGqBXVnx9e7x-72" style="edgeStyle=orthogonalEdgeStyle;rounded=0;orthogonalLoop=1;jettySize=auto;html=1;exitX=0.5;exitY=1;exitDx=0;exitDy=0;entryX=0.5;entryY=0;entryDx=0;entryDy=0;" parent="1" source="iCYjKAUPEGqBXVnx9e7x-40" target="iCYjKAUPEGqBXVnx9e7x-41" edge="1">
          <mxGeometry relative="1" as="geometry" />
        </mxCell>
        <mxCell id="iCYjKAUPEGqBXVnx9e7x-40" value="Extracted Audio" style="html=1;overflow=block;blockSpacing=1;whiteSpace=wrap;fontSize=15;fontStyle=1;align=center;spacing=3.8;strokeColor=#000000;rounded=1;absoluteArcSize=1;arcSize=12;fillColor=none;strokeWidth=NaN;lucidId=732aFYkTXF4W;fontColor=#000000;" parent="1" vertex="1">
          <mxGeometry x="898.3899999999999" y="-1820" width="179" height="51" as="geometry" />
        </mxCell>
        <mxCell id="iCYjKAUPEGqBXVnx9e7x-75" style="edgeStyle=orthogonalEdgeStyle;rounded=0;orthogonalLoop=1;jettySize=auto;html=1;exitX=0.5;exitY=1;exitDx=0;exitDy=0;entryX=0.5;entryY=0;entryDx=0;entryDy=0;curved=1;" parent="1" source="iCYjKAUPEGqBXVnx9e7x-41" target="iCYjKAUPEGqBXVnx9e7x-70" edge="1">
          <mxGeometry relative="1" as="geometry" />
        </mxCell>
        <mxCell id="iCYjKAUPEGqBXVnx9e7x-41" value="&lt;font&gt;Whisper&lt;/font&gt;" style="html=1;overflow=block;blockSpacing=1;whiteSpace=wrap;fontSize=13;align=center;spacing=9;strokeColor=#000000;rounded=1;absoluteArcSize=1;arcSize=12;fillColor=none;strokeWidth=NaN;lucidId=732aEsPQRO9Z;fontColor=#000000;" parent="1" vertex="1">
          <mxGeometry x="898.3899999999999" y="-1714" width="179" height="48" as="geometry" />
        </mxCell>
        <mxCell id="iCYjKAUPEGqBXVnx9e7x-142" style="edgeStyle=orthogonalEdgeStyle;rounded=0;orthogonalLoop=1;jettySize=auto;html=1;exitX=1;exitY=0.5;exitDx=0;exitDy=0;entryX=0.5;entryY=0;entryDx=0;entryDy=0;" parent="1" source="iCYjKAUPEGqBXVnx9e7x-68" target="iCYjKAUPEGqBXVnx9e7x-140" edge="1">
          <mxGeometry relative="1" as="geometry">
            <mxPoint x="1820.39" y="-1395" as="targetPoint" />
          </mxGeometry>
        </mxCell>
        <mxCell id="iCYjKAUPEGqBXVnx9e7x-68" value="&lt;font color=&quot;#242424&quot;&gt;Speech-to-Text&lt;/font&gt;" style="html=1;overflow=block;blockSpacing=1;whiteSpace=wrap;fontSize=16.7;fontStyle=1;align=center;spacing=3.8;strokeColor=#242424;rounded=1;absoluteArcSize=1;arcSize=12;fillColor=none;strokeWidth=1;lucidId=pO2aqZgcHyE-;" parent="1" vertex="1">
          <mxGeometry x="1038.3899999999999" y="-1590" width="200" height="50" as="geometry" />
        </mxCell>
        <mxCell id="iCYjKAUPEGqBXVnx9e7x-104" style="edgeStyle=orthogonalEdgeStyle;rounded=0;orthogonalLoop=1;jettySize=auto;html=1;exitX=0.5;exitY=1;exitDx=0;exitDy=0;entryX=0.5;entryY=0;entryDx=0;entryDy=0;elbow=vertical;" parent="1" source="iCYjKAUPEGqBXVnx9e7x-70" target="iCYjKAUPEGqBXVnx9e7x-77" edge="1">
          <mxGeometry relative="1" as="geometry" />
        </mxCell>
        <mxCell id="iCYjKAUPEGqBXVnx9e7x-70" value="&lt;font color=&quot;#242424&quot;&gt;Semantic Timeline&lt;/font&gt;" style="html=1;overflow=block;blockSpacing=1;whiteSpace=wrap;fontSize=16.7;fontStyle=1;align=center;spacing=3.8;strokeColor=#242424;rounded=1;absoluteArcSize=1;arcSize=12;fillColor=none;strokeWidth=1;lucidId=pO2aqZgcHyE-;" parent="1" vertex="1">
          <mxGeometry x="758.39" y="-1590" width="200" height="50" as="geometry" />
        </mxCell>
        <mxCell id="iCYjKAUPEGqBXVnx9e7x-73" style="edgeStyle=orthogonalEdgeStyle;rounded=0;orthogonalLoop=1;jettySize=auto;html=1;exitX=0.5;exitY=1;exitDx=0;exitDy=0;entryX=0.451;entryY=0.01;entryDx=0;entryDy=0;entryPerimeter=0;curved=1;" parent="1" source="iCYjKAUPEGqBXVnx9e7x-41" target="iCYjKAUPEGqBXVnx9e7x-68" edge="1">
          <mxGeometry relative="1" as="geometry" />
        </mxCell>
        <mxCell id="iCYjKAUPEGqBXVnx9e7x-77" value="" style="html=1;overflow=block;blockSpacing=1;whiteSpace=wrap;fontSize=13;align=center;spacing=3.8;strokeColor=#000000;rounded=1;absoluteArcSize=1;arcSize=12;fillColor=none;strokeWidth=NaN;lucidId=962aWOZB_6QL;movable=1;resizable=1;rotatable=1;deletable=1;editable=1;locked=0;connectable=1;" parent="1" vertex="1">
          <mxGeometry x="258.39" y="-1400" width="430" height="310" as="geometry" />
        </mxCell>
        <mxCell id="iCYjKAUPEGqBXVnx9e7x-78" style="edgeStyle=orthogonalEdgeStyle;rounded=0;orthogonalLoop=1;jettySize=auto;html=1;exitX=0.5;exitY=1;exitDx=0;exitDy=0;entryX=0.5;entryY=0;entryDx=0;entryDy=0;" parent="1" source="iCYjKAUPEGqBXVnx9e7x-79" target="iCYjKAUPEGqBXVnx9e7x-81" edge="1">
          <mxGeometry relative="1" as="geometry" />
        </mxCell>
        <mxCell id="iCYjKAUPEGqBXVnx9e7x-79" value="Embedding Model" style="html=1;overflow=block;blockSpacing=1;whiteSpace=wrap;fontSize=15;fontStyle=1;align=center;spacing=3.8;strokeColor=#000000;rounded=1;absoluteArcSize=1;arcSize=12;fillColor=none;strokeWidth=NaN;lucidId=732aFYkTXF4W;fontColor=#000000;" parent="1" vertex="1">
          <mxGeometry x="382.39" y="-1370" width="179" height="51" as="geometry" />
        </mxCell>
        <mxCell id="iCYjKAUPEGqBXVnx9e7x-90" style="edgeStyle=orthogonalEdgeStyle;rounded=0;orthogonalLoop=1;jettySize=auto;html=1;exitX=0.5;exitY=1;exitDx=0;exitDy=0;entryX=0.5;entryY=0;entryDx=0;entryDy=0;" parent="1" source="iCYjKAUPEGqBXVnx9e7x-81" target="iCYjKAUPEGqBXVnx9e7x-89" edge="1">
          <mxGeometry relative="1" as="geometry" />
        </mxCell>
        <mxCell id="iCYjKAUPEGqBXVnx9e7x-81" value="&lt;span style=&quot;font-size: 15px;&quot;&gt;Sentence Transformer (All-MiniLM-L6)&lt;/span&gt;" style="html=1;overflow=block;blockSpacing=1;whiteSpace=wrap;fontSize=13;align=center;spacing=9;strokeColor=#000000;rounded=1;absoluteArcSize=1;arcSize=12;fillColor=none;strokeWidth=NaN;lucidId=732aEsPQRO9Z;fontColor=#000000;fontStyle=0;verticalAlign=middle;" parent="1" vertex="1">
          <mxGeometry x="382.39" y="-1264" width="179" height="48" as="geometry" />
        </mxCell>
        <mxCell id="iCYjKAUPEGqBXVnx9e7x-103" style="edgeStyle=orthogonalEdgeStyle;rounded=0;orthogonalLoop=1;jettySize=auto;html=1;exitX=0.5;exitY=1;exitDx=0;exitDy=0;entryX=0.5;entryY=0;entryDx=0;entryDy=0;" parent="1" source="iCYjKAUPEGqBXVnx9e7x-89" target="iCYjKAUPEGqBXVnx9e7x-96" edge="1">
          <mxGeometry relative="1" as="geometry" />
        </mxCell>
        <mxCell id="iCYjKAUPEGqBXVnx9e7x-146" style="edgeStyle=orthogonalEdgeStyle;rounded=0;orthogonalLoop=1;jettySize=auto;html=1;exitX=1;exitY=0.5;exitDx=0;exitDy=0;entryX=0.5;entryY=0;entryDx=0;entryDy=0;elbow=vertical;" parent="1" source="iCYjKAUPEGqBXVnx9e7x-89" target="iCYjKAUPEGqBXVnx9e7x-145" edge="1">
          <mxGeometry relative="1" as="geometry" />
        </mxCell>
        <mxCell id="iCYjKAUPEGqBXVnx9e7x-89" value="&lt;font color=&quot;#242424&quot;&gt;Topical Clustering&lt;/font&gt;" style="html=1;overflow=block;blockSpacing=1;whiteSpace=wrap;fontSize=16.7;fontStyle=1;align=center;spacing=3.8;strokeColor=#242424;rounded=1;absoluteArcSize=1;arcSize=12;fillColor=none;strokeWidth=1;lucidId=pO2aqZgcHyE-;" parent="1" vertex="1">
          <mxGeometry x="286.39" y="-1175" width="370" height="50" as="geometry" />
        </mxCell>
        <mxCell id="iCYjKAUPEGqBXVnx9e7x-95" style="edgeStyle=orthogonalEdgeStyle;rounded=0;orthogonalLoop=1;jettySize=auto;html=1;exitX=0.5;exitY=1;exitDx=0;exitDy=0;entryX=0.5;entryY=0;entryDx=0;entryDy=0;" parent="1" source="iCYjKAUPEGqBXVnx9e7x-96" target="iCYjKAUPEGqBXVnx9e7x-102" edge="1">
          <mxGeometry relative="1" as="geometry">
            <mxPoint x="474.14" y="-820" as="targetPoint" />
          </mxGeometry>
        </mxCell>
        <mxCell id="iCYjKAUPEGqBXVnx9e7x-96" value="&lt;span style=&quot;font-size: 15px;&quot;&gt;Google Flan-T5&lt;/span&gt;" style="html=1;overflow=block;blockSpacing=1;whiteSpace=wrap;fontSize=13;align=center;spacing=9;strokeColor=#000000;rounded=1;absoluteArcSize=1;arcSize=12;fillColor=none;strokeWidth=NaN;lucidId=732aEsPQRO9Z;fontColor=#000000;fontStyle=0;verticalAlign=middle;" parent="1" vertex="1">
          <mxGeometry x="382.39" y="-1048" width="179" height="48" as="geometry" />
        </mxCell>
        <mxCell id="iCYjKAUPEGqBXVnx9e7x-149" style="edgeStyle=orthogonalEdgeStyle;rounded=0;orthogonalLoop=1;jettySize=auto;html=1;exitX=0.5;exitY=0;exitDx=0;exitDy=0;entryX=0;entryY=0.5;entryDx=0;entryDy=0;curved=1;" parent="1" source="iCYjKAUPEGqBXVnx9e7x-102" target="iCYjKAUPEGqBXVnx9e7x-145" edge="1">
          <mxGeometry relative="1" as="geometry" />
        </mxCell>
        <mxCell id="iCYjKAUPEGqBXVnx9e7x-159" style="edgeStyle=orthogonalEdgeStyle;rounded=0;orthogonalLoop=1;jettySize=auto;html=1;exitX=0.5;exitY=1;exitDx=0;exitDy=0;entryX=0.25;entryY=0;entryDx=0;entryDy=0;" parent="1" source="iCYjKAUPEGqBXVnx9e7x-102" target="iCYjKAUPEGqBXVnx9e7x-152" edge="1">
          <mxGeometry relative="1" as="geometry" />
        </mxCell>
        <mxCell id="iCYjKAUPEGqBXVnx9e7x-102" value="&lt;span style=&quot;font-size: 24px;&quot;&gt;Smart Topic Generation&lt;/span&gt;" style="rounded=1;whiteSpace=wrap;html=1;fillColor=#f8cecc;strokeColor=#b85450;" parent="1" vertex="1">
          <mxGeometry x="289.28" y="-860" width="365.5" height="86" as="geometry" />
        </mxCell>
        <mxCell id="iCYjKAUPEGqBXVnx9e7x-166" style="edgeStyle=orthogonalEdgeStyle;rounded=0;orthogonalLoop=1;jettySize=auto;html=1;exitX=0.5;exitY=1;exitDx=0;exitDy=0;entryX=0.5;entryY=0;entryDx=0;entryDy=0;" parent="1" source="iCYjKAUPEGqBXVnx9e7x-140" target="iCYjKAUPEGqBXVnx9e7x-165" edge="1">
          <mxGeometry relative="1" as="geometry" />
        </mxCell>
        <mxCell id="iCYjKAUPEGqBXVnx9e7x-140" value="&lt;span style=&quot;font-size: 15px;&quot;&gt;Chunking for Tokenization&lt;/span&gt;" style="html=1;overflow=block;blockSpacing=1;whiteSpace=wrap;fontSize=13;align=center;spacing=9;strokeColor=#000000;rounded=1;absoluteArcSize=1;arcSize=12;fillColor=none;strokeWidth=NaN;lucidId=732aEsPQRO9Z;fontColor=#000000;fontStyle=0;verticalAlign=middle;" parent="1" vertex="1">
          <mxGeometry x="1352.19" y="-1370" width="331.9" height="89" as="geometry" />
        </mxCell>
        <mxCell id="iCYjKAUPEGqBXVnx9e7x-160" style="edgeStyle=orthogonalEdgeStyle;rounded=0;orthogonalLoop=1;jettySize=auto;html=1;exitX=0.5;exitY=1;exitDx=0;exitDy=0;entryX=0.75;entryY=0;entryDx=0;entryDy=0;" parent="1" source="iCYjKAUPEGqBXVnx9e7x-143" target="iCYjKAUPEGqBXVnx9e7x-152" edge="1">
          <mxGeometry relative="1" as="geometry" />
        </mxCell>
        <mxCell id="iCYjKAUPEGqBXVnx9e7x-143" value="&lt;span style=&quot;font-size: 24px;&quot;&gt;Overall Summary Output&lt;/span&gt;" style="rounded=1;whiteSpace=wrap;html=1;fillColor=#f8cecc;strokeColor=#b85450;" parent="1" vertex="1">
          <mxGeometry x="1335.39" y="-860" width="365.5" height="86" as="geometry" />
        </mxCell>
        <mxCell id="iCYjKAUPEGqBXVnx9e7x-158" style="edgeStyle=orthogonalEdgeStyle;rounded=0;orthogonalLoop=1;jettySize=auto;html=1;exitX=0.5;exitY=1;exitDx=0;exitDy=0;entryX=0.5;entryY=0;entryDx=0;entryDy=0;" parent="1" source="iCYjKAUPEGqBXVnx9e7x-144" target="iCYjKAUPEGqBXVnx9e7x-152" edge="1">
          <mxGeometry relative="1" as="geometry" />
        </mxCell>
        <mxCell id="iCYjKAUPEGqBXVnx9e7x-144" value="&lt;span style=&quot;font-size: 24px;&quot;&gt;Topical Summaries with Timestamps&lt;/span&gt;" style="rounded=1;whiteSpace=wrap;html=1;fillColor=#f8cecc;strokeColor=#b85450;" parent="1" vertex="1">
          <mxGeometry x="775.89" y="-860" width="435.5" height="86" as="geometry" />
        </mxCell>
        <mxCell id="iCYjKAUPEGqBXVnx9e7x-148" style="edgeStyle=orthogonalEdgeStyle;rounded=0;orthogonalLoop=1;jettySize=auto;html=1;exitX=0.5;exitY=1;exitDx=0;exitDy=0;entryX=0.5;entryY=0;entryDx=0;entryDy=0;" parent="1" source="iCYjKAUPEGqBXVnx9e7x-145" target="iCYjKAUPEGqBXVnx9e7x-144" edge="1">
          <mxGeometry relative="1" as="geometry" />
        </mxCell>
        <mxCell id="iCYjKAUPEGqBXVnx9e7x-145" value="&lt;span style=&quot;font-size: 15px;&quot;&gt;Facebook BART&lt;/span&gt;" style="html=1;overflow=block;blockSpacing=1;whiteSpace=wrap;fontSize=13;align=center;spacing=9;strokeColor=#000000;rounded=1;absoluteArcSize=1;arcSize=12;fillColor=none;strokeWidth=NaN;lucidId=732aEsPQRO9Z;fontColor=#000000;fontStyle=0;verticalAlign=middle;" parent="1" vertex="1">
          <mxGeometry x="903.1399999999999" y="-1048" width="179" height="48" as="geometry" />
        </mxCell>
        <mxCell id="iCYjKAUPEGqBXVnx9e7x-150" value="" style="html=1;overflow=block;blockSpacing=1;whiteSpace=wrap;fontSize=13;align=center;spacing=3.8;strokeColor=#000000;rounded=1;absoluteArcSize=1;arcSize=12;fillColor=none;strokeWidth=NaN;lucidId=962aWOZB_6QL;movable=1;resizable=1;rotatable=1;deletable=1;editable=1;locked=0;connectable=1;" parent="1" vertex="1">
          <mxGeometry x="669.39" y="-628" width="660" height="310" as="geometry" />
        </mxCell>
        <mxCell id="iCYjKAUPEGqBXVnx9e7x-151" style="edgeStyle=orthogonalEdgeStyle;rounded=0;orthogonalLoop=1;jettySize=auto;html=1;exitX=0.5;exitY=1;exitDx=0;exitDy=0;entryX=0.5;entryY=0;entryDx=0;entryDy=0;" parent="1" source="iCYjKAUPEGqBXVnx9e7x-152" target="iCYjKAUPEGqBXVnx9e7x-154" edge="1">
          <mxGeometry relative="1" as="geometry" />
        </mxCell>
        <mxCell id="iCYjKAUPEGqBXVnx9e7x-152" value="OpenAI&#39;s Embedding Model" style="html=1;overflow=block;blockSpacing=1;whiteSpace=wrap;fontSize=15;fontStyle=1;align=center;spacing=3.8;strokeColor=#000000;rounded=1;absoluteArcSize=1;arcSize=12;fillColor=none;strokeWidth=NaN;lucidId=732aFYkTXF4W;fontColor=#000000;" parent="1" vertex="1">
          <mxGeometry x="819.03" y="-590" width="350" height="51" as="geometry" />
        </mxCell>
        <mxCell id="iCYjKAUPEGqBXVnx9e7x-162" style="edgeStyle=orthogonalEdgeStyle;rounded=0;orthogonalLoop=1;jettySize=auto;html=1;exitX=0.5;exitY=1;exitDx=0;exitDy=0;entryX=0.5;entryY=0;entryDx=0;entryDy=0;" parent="1" source="iCYjKAUPEGqBXVnx9e7x-154" target="iCYjKAUPEGqBXVnx9e7x-161" edge="1">
          <mxGeometry relative="1" as="geometry" />
        </mxCell>
        <mxCell id="iCYjKAUPEGqBXVnx9e7x-154" value="&lt;span style=&quot;font-size: 15px;&quot;&gt;Cosine Similarity Indexing&lt;/span&gt;" style="html=1;overflow=block;blockSpacing=1;whiteSpace=wrap;fontSize=13;align=center;spacing=9;strokeColor=#000000;rounded=1;absoluteArcSize=1;arcSize=12;fillColor=none;strokeWidth=NaN;lucidId=732aEsPQRO9Z;fontColor=#000000;fontStyle=0;verticalAlign=middle;" parent="1" vertex="1">
          <mxGeometry x="884.03" y="-489" width="220" height="48" as="geometry" />
        </mxCell>
        <mxCell id="iCYjKAUPEGqBXVnx9e7x-156" value="&lt;span style=&quot;font-size: 24px;&quot;&gt;RAG Response&lt;/span&gt;" style="rounded=1;whiteSpace=wrap;html=1;fillColor=#dae8fc;strokeColor=#6c8ebf;" parent="1" vertex="1">
          <mxGeometry x="809.89" y="-250" width="365.5" height="86" as="geometry" />
        </mxCell>
        <mxCell id="iCYjKAUPEGqBXVnx9e7x-164" style="edgeStyle=orthogonalEdgeStyle;rounded=0;orthogonalLoop=1;jettySize=auto;html=1;exitX=1;exitY=0.5;exitDx=0;exitDy=0;entryX=0;entryY=0.5;entryDx=0;entryDy=0;" parent="1" source="iCYjKAUPEGqBXVnx9e7x-157" target="iCYjKAUPEGqBXVnx9e7x-161" edge="1">
          <mxGeometry relative="1" as="geometry" />
        </mxCell>
        <mxCell id="iCYjKAUPEGqBXVnx9e7x-157" value="&lt;font style=&quot;font-size: 24px;&quot;&gt;User Query&lt;/font&gt;" style="html=1;overflow=block;blockSpacing=1;whiteSpace=wrap;fontSize=16.7;fontStyle=1;align=center;spacing=3.8;strokeColor=#82b366;rounded=1;absoluteArcSize=1;arcSize=12;fillColor=#d5e8d4;strokeWidth=NaN;lucidId=2M2aBygYLxwU;" parent="1" vertex="1">
          <mxGeometry x="109.99999999999989" y="-509.5" width="272.39" height="89" as="geometry" />
        </mxCell>
        <mxCell id="iCYjKAUPEGqBXVnx9e7x-163" style="edgeStyle=orthogonalEdgeStyle;rounded=0;orthogonalLoop=1;jettySize=auto;html=1;exitX=0.5;exitY=1;exitDx=0;exitDy=0;entryX=0.5;entryY=0;entryDx=0;entryDy=0;" parent="1" source="iCYjKAUPEGqBXVnx9e7x-161" target="iCYjKAUPEGqBXVnx9e7x-156" edge="1">
          <mxGeometry relative="1" as="geometry" />
        </mxCell>
        <mxCell id="iCYjKAUPEGqBXVnx9e7x-161" value="&lt;span style=&quot;font-size: 15px;&quot;&gt;ChatGPT LLM Client&lt;/span&gt;" style="html=1;overflow=block;blockSpacing=1;whiteSpace=wrap;fontSize=13;align=center;spacing=9;strokeColor=#000000;rounded=1;absoluteArcSize=1;arcSize=12;fillColor=none;strokeWidth=NaN;lucidId=732aEsPQRO9Z;fontColor=#000000;fontStyle=0;verticalAlign=middle;" parent="1" vertex="1">
          <mxGeometry x="884.03" y="-400" width="220" height="48" as="geometry" />
        </mxCell>
        <mxCell id="iCYjKAUPEGqBXVnx9e7x-167" style="edgeStyle=orthogonalEdgeStyle;rounded=0;orthogonalLoop=1;jettySize=auto;html=1;exitX=0.5;exitY=1;exitDx=0;exitDy=0;entryX=0.5;entryY=0;entryDx=0;entryDy=0;" parent="1" source="iCYjKAUPEGqBXVnx9e7x-165" target="iCYjKAUPEGqBXVnx9e7x-143" edge="1">
          <mxGeometry relative="1" as="geometry" />
        </mxCell>
        <mxCell id="iCYjKAUPEGqBXVnx9e7x-165" value="&lt;span style=&quot;font-size: 15px;&quot;&gt;BART +&amp;nbsp;&lt;/span&gt;&lt;span style=&quot;font-size: 15px;&quot;&gt;ChatGPT&lt;/span&gt;" style="html=1;overflow=block;blockSpacing=1;whiteSpace=wrap;fontSize=13;align=center;spacing=9;strokeColor=#000000;rounded=1;absoluteArcSize=1;arcSize=12;fillColor=none;strokeWidth=NaN;lucidId=732aEsPQRO9Z;fontColor=#000000;fontStyle=0;verticalAlign=middle;" parent="1" vertex="1">
          <mxGeometry x="1429.39" y="-1052" width="179" height="48" as="geometry" />
        </mxCell>
      </root>
    </mxGraphModel>
  </diagram>
</mxfile>
